<?xml version="1.0" encoding="UTF-8" standalone="no"?>
<!-- Created with Inkscape (http://www.inkscape.org/) -->

<svg
   xmlns:dc="http://purl.org/dc/elements/1.1/"
   xmlns:cc="http://creativecommons.org/ns#"
   xmlns:rdf="http://www.w3.org/1999/02/22-rdf-syntax-ns#"
   xmlns:svg="http://www.w3.org/2000/svg"
   xmlns="http://www.w3.org/2000/svg"
   xmlns:sodipodi="http://sodipodi.sourceforge.net/DTD/sodipodi-0.dtd"
   xmlns:inkscape="http://www.inkscape.org/namespaces/inkscape"
   width="94.191666mm"
   height="125.4125mm"
   viewBox="0 0 94.191666 125.4125"
   version="1.1"
   id="svg8"
   inkscape:version="0.92.2 (5c3e80d, 2017-08-06)"
   sodipodi:docname="positivo.svg">
  <defs
     id="defs2" />
  <sodipodi:namedview
     id="base"
     pagecolor="#ffffff"
     bordercolor="#666666"
     borderopacity="1.0"
     inkscape:pageopacity="0.0"
     inkscape:pageshadow="2"
     inkscape:zoom="0.35"
     inkscape:cx="117.99999"
     inkscape:cy="419.85716"
     inkscape:document-units="mm"
     inkscape:current-layer="layer1"
     showgrid="false"
     fit-margin-top="0"
     fit-margin-left="0"
     fit-margin-right="0"
     fit-margin-bottom="0"
     inkscape:window-width="1366"
     inkscape:window-height="705"
     inkscape:window-x="-8"
     inkscape:window-y="-8"
     inkscape:window-maximized="1" />
  <metadata
     id="metadata5">
    <rdf:RDF>
      <cc:Work
         rdf:about="">
        <dc:format>image/svg+xml</dc:format>
        <dc:type
           rdf:resource="http://purl.org/dc/dcmitype/StillImage" />
        <dc:title></dc:title>
      </cc:Work>
    </rdf:RDF>
  </metadata>
  <g
     inkscape:label="Capa 1"
     inkscape:groupmode="layer"
     id="layer1"
     transform="translate(-74.612503,-134.50804)">
    <path
       style="fill:#000000;stroke-width:0.26458332"
       d="m 98.929013,258.23234 c 0.183656,-0.074 0.714305,-0.68966 1.179227,-1.36818 3.58723,-5.23525 8.61096,-9.48332 8.89015,-7.51751 0.0584,0.41135 -0.0506,0.59531 -0.35277,0.59531 -0.83062,0 -0.21451,0.66003 0.76467,0.81919 0.54018,0.0878 1.54244,0.40425 2.22723,0.7032 1.40013,0.61124 5.825,1.9172 6.4959,1.9172 0.24074,0 0.43772,0.11906 0.43772,0.26458 0,0.14552 0.1654,0.26458 0.36756,0.26458 0.20216,0 0.64864,0.22968 0.99219,0.51039 0.80217,0.65546 0.5378,0.93566 -1.61995,1.71696 -1.2615,0.45678 -1.86955,0.54506 -2.61042,0.37899 -0.53121,-0.11907 -1.29108,-0.27968 -1.68859,-0.3569 -0.39752,-0.0772 -1.12761,-0.49588 -1.62243,-0.93034 -0.49483,-0.43446 -1.01766,-0.78993 -1.16185,-0.78993 -0.14419,0 -0.82366,-0.24838 -1.50994,-0.55195 -1.87101,-0.82764 -3.31468,-0.18927 -3.67779,1.62627 -0.19597,0.97984 -1.33895,2.0506 -2.69129,2.52125 -0.94483,0.32883 -5.219913,0.51928 -4.419617,0.19689 z m 39.609707,-0.37951 c -0.21755,-0.68546 -0.051,-0.84157 1.52235,-1.42688 2.38303,-0.88653 5.47499,-4.54589 5.49176,-6.49956 0.003,-0.37237 0.17243,-0.90491 0.37608,-1.18343 0.32711,-0.44733 0.44701,-0.46532 1.02824,-0.15426 0.88913,0.47585 1.60092,1.21132 2.84607,2.94076 0.57625,0.80037 1.25593,1.74422 1.51042,2.09746 1.07716,1.49515 2.27237,2.86065 3.31631,3.78881 l 1.11514,0.99147 -3.66608,7.9e-4 -3.66609,8e-4 -0.56701,-0.72083 c -0.31185,-0.39646 -0.52841,-0.88888 -0.48125,-1.09426 0.0578,-0.25176 -0.0571,-0.31862 -0.35261,-0.20521 -0.2411,0.0924 -0.48815,0.16806 -0.54901,0.16806 -0.0609,0 -0.11065,0.17859 -0.11065,0.39687 0,0.21828 -0.17572,0.39688 -0.39048,0.39688 -0.21477,0 -0.78032,0.23768 -1.25678,0.52817 -0.70788,0.4316 -1.33475,0.52836 -3.42814,0.52917 -2.37085,7.9e-4 -2.57501,-0.0405 -2.73827,-0.55481 z m -7.21029,-0.97143 c -0.32255,-0.21417 -0.58646,-0.65269 -0.58646,-0.97449 0,-0.32179 -0.0893,-0.67438 -0.19844,-0.78352 -0.10914,-0.10914 -0.21332,-0.30758 -0.23151,-0.44097 -0.0804,-0.58965 -0.12169,-0.61717 -0.3638,-0.24254 -0.20978,0.32461 -0.25722,0.29438 -0.26053,-0.16604 -0.002,-0.3096 -0.18265,-0.71114 -0.40093,-0.89229 -0.21828,-0.18116 -0.39687,-0.21868 -0.39687,-0.0834 0,0.27054 -1.38005,0.24282 -1.83252,-0.0368 -0.15628,-0.0966 -0.28415,-0.0575 -0.28415,0.0867 0,0.2432 -0.71294,0.57834 -1.54083,0.72433 -0.19261,0.034 -0.69863,-0.0597 -1.12448,-0.20815 -0.70172,-0.24462 -0.89612,-0.50477 -0.80561,-1.07805 0.0172,-0.10914 -0.13561,-0.19843 -0.33965,-0.19843 -0.41579,0 -1.02824,-1.37198 -1.06207,-2.37919 -0.0122,-0.36266 -0.17098,-0.66032 -0.35288,-0.66146 -0.36346,-0.002 -0.44044,-0.23925 -0.23917,-0.73628 0.10175,-0.25128 0.13594,-0.24979 0.15213,0.007 0.0115,0.18191 0.15269,0.33073 0.31378,0.33073 0.16109,0 0.2288,-0.16702 0.15047,-0.37115 -0.2337,-0.60901 0.44075,-1.24678 1.34567,-1.27252 0.57762,-0.0164 0.89596,-0.17954 1.00192,-0.51339 0.0854,-0.26913 0.38537,-0.61246 0.66655,-0.76294 0.28119,-0.15049 0.51125,-0.45505 0.51125,-0.6768 0,-0.22579 -0.12802,-0.32405 -0.29098,-0.22334 -0.422,0.26081 0.21027,-0.86164 0.84018,-1.49155 0.28002,-0.28003 0.63582,-0.50914 0.79064,-0.50914 0.15825,0 0.24514,-0.3765 0.19844,-0.8599 -0.0548,-0.56715 0.0263,-0.83846 0.23814,-0.79692 0.18562,0.0364 0.25743,-0.10321 0.17013,-0.33073 -0.0831,-0.21654 -0.31693,-0.3937 -0.51965,-0.3937 -0.34512,0 -0.45602,-0.2668 -0.30242,-0.7276 0.0364,-0.10914 0.14354,-0.17264 0.23813,-0.14111 0.0946,0.0315 0.17198,-0.38232 0.17198,-0.91967 0,-0.93723 -0.64865,-1.76426 -1.4023,-1.78795 -0.14552,-0.005 -0.24961,-0.20438 -0.23132,-0.44402 0.0204,-0.26806 -0.1068,-0.38198 -0.33073,-0.29604 -0.20019,0.0768 -0.36399,0.0155 -0.36399,-0.13639 0,-0.17431 -0.53638,-0.22718 -1.45521,-0.14345 -0.96233,0.0877 -1.4552,0.0341 -1.4552,-0.15842 0,-0.19152 -0.15834,-0.20962 -0.46302,-0.0529 -0.82856,0.42614 -2.54405,-0.35054 -2.35669,-1.06698 0.0684,-0.2615 -2.2e-4,-0.47546 -0.15246,-0.47546 -0.15223,0 -0.41224,-0.18524 -0.57779,-0.41164 -0.16555,-0.22641 -0.53586,-0.44612 -0.82292,-0.48824 -0.28705,-0.0421 -0.52192,-0.20727 -0.52192,-0.36697 0,-0.1597 -0.23812,-0.51452 -0.52916,-0.78848 -0.29104,-0.27397 -1.06495,-1.14124 -1.71979,-1.92727 -0.65485,-0.78602 -1.69664,-1.89668 -2.31511,-2.46813 -0.61846,-0.57144 -1.12448,-1.23016 -1.12448,-1.46382 0,-0.23365 -0.23812,-0.57354 -0.52916,-0.7553 -0.29105,-0.18176 -0.52917,-0.55485 -0.52917,-0.82909 0,-0.27423 -0.17859,-0.56714 -0.39688,-0.65091 -0.21828,-0.0838 -0.39687,-0.39652 -0.39687,-0.69502 0,-0.2985 -0.2752,-0.98685 -0.61156,-1.52966 -0.33636,-0.54281 -0.74192,-1.34412 -0.90124,-1.78068 -0.15933,-0.43656 -0.3795,-1.03187 -0.48929,-1.32292 -0.10978,-0.29104 -0.22659,-0.86696 -0.25958,-1.27983 -0.0494,-0.61868 0.0278,-0.72771 0.43939,-0.62009 0.27584,0.0721 0.50118,-0.006 0.50341,-0.17537 0.002,-0.16827 0.11222,-0.47689 0.24442,-0.68582 0.1961,-0.30989 0.31505,-0.31788 0.64582,-0.0434 0.223,0.18508 0.52973,0.25969 0.68162,0.16581 0.1519,-0.0939 0.27618,-0.0644 0.27618,0.0654 0,0.12986 0.17859,0.2361 0.39687,0.2361 0.21828,0 0.39688,-0.0914 0.39688,-0.2032 0,-0.11176 0.5865,-0.18122 1.30333,-0.15434 1.24515,0.0467 1.31025,0.0142 1.45851,-0.72835 0.1171,-0.58644 0.22999,-0.70241 0.45994,-0.47247 0.22994,0.22995 0.46136,0.12847 0.94277,-0.41341 1.05514,-1.18767 1.45756,-1.88468 1.31006,-2.26907 -0.23674,-0.61693 0.77069,-1.95822 1.58375,-2.10861 0.84338,-0.156 0.81841,-0.15426 3.52497,-0.24602 1.48893,-0.0505 2.44679,-0.26112 3.83646,-0.84363 1.53208,-0.64222 2.18134,-0.76845 3.75779,-0.73058 1.04814,0.0252 1.97004,-0.0583 2.04867,-0.18554 0.0786,-0.12721 -0.37455,-0.47456 -1.00706,-0.77187 -0.63251,-0.29732 -1.64688,-1.13402 -2.25415,-1.85934 -0.60727,-0.72532 -1.64299,-1.63456 -2.30159,-2.02052 -1.52518,-0.89381 -2.27922,-2.51527 -1.1697,-2.51527 0.29104,0 1.00541,-0.47625 1.5875,-1.05833 0.76435,-0.76436 1.27881,-1.05834 1.85208,-1.05834 0.43656,0 0.79375,0.097 0.79375,0.21558 0,0.11857 0.42935,0.42032 0.95411,0.67056 0.74828,0.35684 1.03602,0.38701 1.33381,0.13986 0.20884,-0.17332 0.64269,-0.32967 0.96412,-0.34745 0.32143,-0.0178 0.9736,-0.32083 1.44928,-0.67345 0.99221,-0.73552 1.95905,-0.93456 2.67597,-0.55087 0.54629,0.29236 0.92829,2.21557 0.94669,4.76603 0.01,1.37967 0.0562,1.47383 1.06873,2.17402 1.07466,0.74318 1.98437,0.96547 1.98437,0.48489 0,-0.14552 0.24951,-0.26458 0.55447,-0.26458 0.30496,0 0.89553,-0.24286 1.31237,-0.53968 0.61262,-0.43622 0.71649,-0.65178 0.54186,-1.12448 -0.2889,-0.78197 -0.0938,-1.24626 0.52377,-1.24626 0.27891,0 0.50712,-0.17859 0.50712,-0.39688 0,-0.35041 0.4979,-0.53391 1.14414,-0.42165 0.11996,0.0208 0.14863,-0.0745 0.0637,-0.21192 -0.0849,-0.13739 0.0253,-0.42949 0.24491,-0.64911 0.21962,-0.21962 0.39931,-0.58641 0.39931,-0.81508 0,-0.23156 0.22192,-0.41578 0.50086,-0.41578 0.64233,0 0.98813,0.79052 0.35073,0.8018 -0.41334,0.007 -0.41082,0.0336 0.0276,0.28854 0.42396,0.24655 0.43622,0.33364 0.10129,0.71956 -0.20958,0.24148 -0.38463,0.61766 -0.38899,0.83594 -0.0168,0.83795 -0.37814,3.59043 -0.52107,3.96875 -0.0825,0.21828 -0.19432,0.635 -0.24854,0.92604 -0.16594,0.89064 -0.90037,2.839 -1.60866,4.26761 -0.39404,0.79478 -0.61209,1.58968 -0.52617,1.91823 0.0807,0.30857 0.0388,0.56103 -0.0931,0.56103 -0.47374,0 -0.2282,0.58175 0.30432,0.721 0.33997,0.0889 0.48888,0.28627 0.39687,0.52604 -0.081,0.21106 -0.14725,0.45199 -0.14725,0.5354 0,0.0834 -0.23813,-0.0638 -0.52917,-0.32723 -0.30009,-0.27157 -0.52917,-0.3466 -0.52917,-0.1733 0,0.16808 0.11907,0.30559 0.26459,0.30559 0.14552,0 0.26458,0.1786 0.26458,0.39688 0,0.21828 -0.093,0.39687 -0.20658,0.39687 -0.53262,0 -1.30787,3.0254 -0.84807,3.30957 0.1435,0.0887 0.2609,0.92778 0.2609,1.86466 0,1.54824 0.0793,1.79387 0.87013,2.69637 0.47857,0.54612 1.34178,1.69172 1.91823,2.54578 l 1.0481,1.55283 0.041,3.73883 c 0.053,4.82956 -0.0665,5.6859 -0.84312,6.03973 -0.42961,0.19575 -0.81074,0.84989 -1.30287,2.23615 -0.38259,1.0777 -0.62079,2.08054 -0.52933,2.22853 0.0915,0.14799 0.0533,0.41268 -0.0849,0.5882 -0.13815,0.17553 -0.32289,1.29644 -0.41052,2.49092 -0.0876,1.19448 -0.2969,2.38511 -0.46505,2.64584 -0.16814,0.26073 -0.93815,0.87992 -1.71114,1.37598 -0.77299,0.49607 -2.81241,2.30531 -4.53206,4.02055 -1.71965,1.71523 -3.30921,3.16671 -3.53236,3.2255 -0.22316,0.0588 -0.66964,-0.0683 -0.99219,-0.2825 z m -3.49688,-14.46445 c 0,-0.0642 -0.11906,-0.19026 -0.26458,-0.2802 -0.14552,-0.0899 -0.26458,-0.0374 -0.26458,0.11668 0,0.15411 0.11906,0.2802 0.26458,0.2802 0.14552,0 0.26458,-0.0525 0.26458,-0.11668 z m -4.03252,-19.69412 c 1.36107,0.0744 2.11811,-0.21808 2.34593,-0.90638 0.43905,-1.32647 0.24366,-2.04803 -0.60735,-2.24293 -1.58751,-0.36357 -2.46304,-0.33967 -3.29378,0.0899 -0.8549,0.44208 -2.46141,0.54877 -3.46535,0.23014 -0.37108,-0.11778 -0.47193,-0.001 -0.47193,0.54512 0,0.39914 0.11341,0.62481 0.26645,0.53022 0.14655,-0.0906 0.34623,0.0512 0.44373,0.31512 0.18379,0.49746 0.58841,0.8656 0.95908,0.87261 0.11773,0.002 0.1511,-0.0978 0.0742,-0.22231 -0.0769,-0.1245 0.14014,-0.17283 0.48242,-0.1074 0.34228,0.0654 0.75488,0.40989 0.91689,0.76546 0.24856,0.54555 0.37773,0.60197 0.82725,0.3614 0.29297,-0.1568 0.9781,-0.26074 1.5225,-0.23098 z m -2.7616,-7.92904 c 0.40637,-0.0774 -0.57384,-0.83516 -1.08038,-0.83516 -0.62639,0 -0.85845,0.21686 -0.69312,0.6477 0.10693,0.27866 0.87105,0.35943 1.7735,0.18746 z m 8.63688,-1.22081 c 0.20635,-0.24862 0.58248,-0.33316 1.05865,-0.23792 0.79227,0.15845 1.3139,-0.29404 0.86103,-0.74691 -0.17833,-0.17833 -0.4365,-0.17482 -0.78308,0.0107 -0.37285,0.19955 -0.6058,0.18793 -0.83533,-0.0416 -0.446,-0.44608 -4.12913,-0.42286 -4.57751,0.0289 -0.28342,0.28553 -0.25064,0.40303 0.18452,0.66146 1.17217,0.6961 3.62238,0.891 4.09172,0.32548 z m -14.74622,35.64804 c -0.4757,-0.0589 -0.7961,-0.21843 -0.71199,-0.35453 0.13066,-0.2114 -0.63182,-0.37912 -1.26736,-0.27878 -0.10914,0.0172 -0.19971,-0.11749 -0.20126,-0.29939 -0.003,-0.40165 -1.9944,-2.5583 -2.89707,-3.13815 -0.60845,-0.39086 -0.70444,-0.68929 -0.78278,-2.43372 -0.0118,-0.26325 -0.14056,-0.40505 -0.28608,-0.31511 -0.14552,0.0899 -0.26458,-0.0816 -0.26458,-0.38126 0,-0.29963 -0.0893,-0.54571 -0.19844,-0.54685 -0.20784,-0.002 -0.85989,-1.25872 -0.85989,-1.65708 0,-0.1269 0.17969,-0.41042 0.3993,-0.63004 0.21962,-0.21962 0.33937,-0.4963 0.2661,-0.61484 -0.0733,-0.11854 0.0299,-0.27812 0.22927,-0.35462 0.19936,-0.0765 0.35851,2.7e-4 0.35368,0.17072 -0.0283,0.99794 0.0968,1.28393 0.49494,1.13115 0.23288,-0.0894 0.7188,0.0734 1.08943,0.36496 0.36798,0.28945 0.77412,0.46134 0.90254,0.38197 0.12842,-0.0794 0.23349,0.0333 0.23349,0.25036 0,0.35359 0.74998,0.7747 1.4552,0.81709 0.14553,0.009 0.22451,0.29918 0.17553,0.64541 -0.0634,0.44804 0.0161,0.58917 0.27566,0.48956 0.51943,-0.19932 1.12031,0.34977 1.23011,1.12409 0.14386,1.01456 0.79886,2.11667 1.25796,2.11667 0.22667,0 0.36288,0.14776 0.30268,0.32837 -0.12283,0.36847 0.40609,0.99455 0.84021,0.99455 0.15591,0 0.28348,0.30468 0.28348,0.67707 0,0.38717 0.11409,0.60656 0.26645,0.5124 0.14655,-0.0906 0.34249,0.0335 0.43543,0.27567 0.3113,0.81122 -0.58502,1.02606 -3.02201,0.72433 z m 2.8493,-2.98322 c 0,-0.14552 0.12609,-0.26459 0.2802,-0.26459 0.1541,0 0.20661,0.11907 0.11667,0.26459 -0.0899,0.14552 -0.21603,0.26458 -0.2802,0.26458 -0.0642,0 -0.11667,-0.11906 -0.11667,-0.26458 z m -2.91042,-3.48368 c 0,-0.26679 0.17859,-0.48507 0.39687,-0.48507 0.21829,0 0.39688,0.21828 0.39688,0.48507 0,0.26679 -0.17859,0.48507 -0.39688,0.48507 -0.21828,0 -0.39687,-0.21828 -0.39687,-0.48507 z m -10.96044,-3.17777 c -0.28016,-0.48355 -0.93501,-1.31039 -1.4552,-1.83743 -1.30091,-1.31802 -2.793742,-4.44833 -2.561912,-5.37204 0.097,-0.38655 0.291972,-0.63138 0.433222,-0.54408 0.14305,0.0884 0.2551,-0.17055 0.25293,-0.58449 l -0.004,-0.74322 -0.32683,0.64056 c -0.17976,0.35231 -0.467602,0.68697 -0.639642,0.74369 -0.752591,0.24808 -1.663968,-2.91665 -1.668423,-5.79354 l -0.0032,-2.02803 1.227876,-1.08082 c 1.330389,-1.17105 2.794549,-1.48292 3.109439,-0.6623 0.0883,0.23018 0.1606,1.7126 0.1606,3.29426 0,3.57431 0.77917,7.86807 1.36237,7.50763 0.12382,-0.0765 0.22513,0.0465 0.22513,0.27335 0,0.22687 0.0962,0.41249 0.2137,0.41249 0.11754,0 0.21371,0.58819 0.21371,1.30708 0,0.82831 -0.10251,1.25724 -0.27985,1.17101 -0.15392,-0.0748 -0.0715,0.0347 0.18317,0.24344 0.56354,0.4619 0.57091,0.57237 0.0715,1.07181 -0.30979,0.30979 -0.33289,0.55985 -0.11059,1.19755 0.45378,1.3017 0.19118,1.81054 -0.40413,0.78308 z m -5.010826,-36.86099 c 0.08344,-0.21745 0.260241,-0.32828 0.392884,-0.2463 0.27744,0.17146 0.0547,0.64165 -0.303931,0.64165 -0.132366,0 -0.172395,-0.17791 -0.08895,-0.39535 z m 47.642376,-2.68214 c -0.0919,-0.0919 -0.048,-0.38955 0.0975,-0.66146 0.14552,-0.27191 0.18628,-0.49438 0.0906,-0.49438 -0.0957,0 -0.056,-0.14883 0.0881,-0.33073 0.30326,-0.3826 0.38933,-2.05052 0.10581,-2.05052 -0.40317,0 -0.30486,-1.53023 0.1085,-1.68885 0.22859,-0.0877 0.34032,-0.28134 0.24828,-0.43026 -0.092,-0.14893 -0.27817,-0.20227 -0.41364,-0.11855 -0.42978,0.26562 -0.26601,-0.12388 0.28287,-0.67276 0.29104,-0.29104 0.64596,-0.52916 0.78871,-0.52916 0.14274,0 0.33424,-0.29766 0.42555,-0.66146 0.0913,-0.3638 0.2745,-0.66146 0.40709,-0.66146 0.24579,0 0.16116,0.81922 -0.17083,1.65365 -0.11203,0.28157 -0.0633,0.46302 0.12428,0.46302 0.16968,0 0.22731,0.13138 0.12807,0.29195 -0.0992,0.16058 -0.20457,0.66659 -0.23407,1.12448 -0.0853,1.32437 -0.76036,4.13982 -0.99258,4.13982 -0.1164,0 -0.21543,-0.14883 -0.22005,-0.33073 -0.005,-0.18962 -0.17054,-0.11655 -0.3884,0.17127 -0.209,0.2761 -0.31725,0.60352 -0.24056,0.7276 0.1626,0.26309 0.008,0.3016 -0.23527,0.0585 z m 2.68251,-0.78147 c -0.16516,-0.66012 0.37399,-2.82212 0.73365,-2.942 0.15328,-0.0511 0.2787,0.0614 0.2787,0.24991 0,0.18854 0.0798,0.66092 0.17743,1.04972 0.13319,0.53069 0.0228,0.88666 -0.4428,1.42797 -0.56769,0.65997 -0.63096,0.67813 -0.74698,0.2144 z m -54.899072,-3.48322 c -1.101655,-1.49371 -1.659594,-4.54022 -0.985899,-5.3833 0.231854,-0.29015 0.141252,-0.49717 -0.414165,-0.94637 -0.786538,-0.63611 -0.993723,-0.5704 -1.700789,0.5394 -0.445114,0.69865 -0.516663,0.72455 -0.911329,0.32988 -0.491245,-0.49124 -0.801229,-4.01315 -0.389464,-4.42491 0.578182,-0.57819 3.408317,1.92681 4.032894,3.56957 0.290901,0.76512 0.805868,0.93648 0.805868,0.26815 0,-0.28329 0.143086,-0.37028 0.428762,-0.26065 0.341068,0.13088 0.395922,0.042 0.268196,-0.43472 -0.08831,-0.32958 -0.162191,-0.7218 -0.164178,-0.8716 -0.002,-0.1498 -0.651887,-0.93634 -1.444221,-1.74785 -0.792335,-0.81152 -1.516159,-1.82005 -1.608499,-2.24118 -0.09234,-0.42113 -0.445654,-1.42054 -0.785141,-2.2209 -0.874422,-2.06151 -1.1904,-3.23836 -1.598391,-5.95313 -0.196827,-1.30969 -0.496157,-3.27422 -0.665179,-4.36562 -0.41519,-2.68098 -0.176937,-10.27767 0.375778,-11.9817 0.225864,-0.69634 0.846438,-2.18462 1.379053,-3.30729 0.532616,-1.12267 1.102598,-2.33888 1.266627,-2.70268 0.667292,-1.47999 4.628242,-4.8507 8.239229,-7.01146 0.97276,-0.58208 2.26574,-1.42395 2.87328,-1.87082 0.60754,-0.44686 1.93522,-1.20455 2.95038,-1.68374 1.01517,-0.47919 2.19241,-1.11763 2.61608,-1.41875 0.42367,-0.30113 1.2571,-0.63179 1.85208,-0.73482 0.59497,-0.10302 2.51052,-0.45102 4.25677,-0.77333 4.40596,-0.81322 12.96974,-0.82912 16.05355,-0.0298 2.65361,0.68781 4.67215,1.56889 5.00069,2.18278 0.14484,0.27062 0.40798,0.49577 0.58476,0.50032 0.98205,0.0253 4.42246,2.25581 4.42246,2.86723 0,0.14511 0.24815,0.34259 0.55145,0.43886 0.93112,0.29552 7.01781,6.01977 8.28077,7.78767 0.94053,1.31657 2.27679,4.33271 2.29042,5.16984 0.005,0.29104 0.17877,0.82682 0.38673,1.19062 0.20797,0.36381 0.38235,1.04401 0.3875,1.51156 0.005,0.46756 0.25976,1.47959 0.56577,2.24896 0.69172,1.73908 0.75599,3.61756 0.15515,4.53456 -0.2543,0.38811 -0.45318,1.22788 -0.46138,1.94822 -0.008,0.69634 -0.18955,2.27811 -0.40359,3.51504 -0.21404,1.23692 -0.50472,3.14192 -0.64596,4.23333 -0.14124,1.09141 -0.44953,3.44393 -0.6851,5.22783 -0.29165,2.2087 -0.39751,4.56416 -0.3318,7.38321 0.0718,3.08033 0.0144,4.16792 -0.22447,4.24982 -0.54424,0.18663 -0.6721,-1.12192 -0.39126,-4.00418 0.28543,-2.92938 0.10964,-5.33119 -0.65054,-8.88793 -0.49258,-2.30472 -0.77899,-3.00268 -0.97717,-2.38125 -0.33021,1.03551 -0.33602,1.64902 -0.0377,3.97761 0.36149,2.82133 0.26007,4.39834 -0.25536,3.97057 -0.31247,-0.25932 -1.49459,0.23455 -3.73157,1.55901 -1.29451,0.76644 -1.96985,0.91472 -1.96985,0.43252 0,-0.22809 -0.0893,-0.40061 -0.19843,-0.38338 -0.55474,0.0876 -0.87092,-0.064 -0.70234,-0.33679 0.11943,-0.19325 0.0723,-0.23348 -0.12827,-0.10952 -0.17438,0.10777 -0.49646,0.0471 -0.71573,-0.13492 -0.33157,-0.27518 -0.42388,-0.23448 -0.54844,0.24181 -0.0903,0.3452 -0.35893,0.57267 -0.67637,0.57267 -0.35399,0 -0.47782,0.12716 -0.37776,0.38791 0.11906,0.31026 -0.0201,0.35413 -0.69507,0.21913 -0.46416,-0.0928 -1.20302,-0.37867 -1.6419,-0.63519 -0.43889,-0.25652 -1.45282,-0.71029 -2.25319,-1.00837 -1.78941,-0.66642 -2.64014,-1.43128 -3.28427,-2.95274 -0.27246,-0.64356 -0.89884,-2.03962 -1.39196,-3.10235 l -0.89658,-1.93224 0.86818,-0.92363 c 1.15402,-1.22774 2.73787,-2.13129 4.57458,-2.60969 0.82792,-0.21565 1.88049,-0.51366 2.33904,-0.66226 1.68924,-0.54741 3.51718,-1.15787 4.93476,-1.64801 1.48096,-0.51206 3.70851,-0.59145 4.56406,-0.16266 0.55743,0.27937 0.56049,0.25211 0.0986,-0.87873 -0.20043,-0.49071 -0.31798,-1.17485 -0.26125,-1.5203 0.0567,-0.34546 -0.0253,-1.53608 -0.18231,-2.64584 -0.15702,-1.10975 -0.27921,-2.28214 -0.27153,-2.6053 0.008,-0.32317 -0.11445,-0.91848 -0.27137,-1.32292 -0.15693,-0.40444 -0.33733,-1.033 -0.40091,-1.39681 -0.0636,-0.3638 -0.28647,-1.19724 -0.49531,-1.85208 -0.20885,-0.65484 -0.44136,-1.50035 -0.5167,-1.8789 -0.082,-0.41212 -0.5626,-0.98323 -1.19779,-1.42341 -0.88673,-0.6145 -1.128,-0.67937 -1.47029,-0.3953 -0.22521,0.18691 -1.25186,0.38231 -2.28144,0.43423 -1.02958,0.0519 -1.96193,0.15 -2.07189,0.21796 -0.10997,0.068 -0.84055,0.19966 -1.62352,0.29267 -0.78297,0.093 -1.50363,0.21595 -1.60146,0.27321 -0.0978,0.0573 -1.28151,0.11271 -2.63041,0.12323 -1.9669,0.0154 -2.90463,0.1706 -4.73579,0.78409 -2.15047,0.72048 -2.52478,0.76353 -6.43548,0.74015 -2.28371,-0.0137 -4.21701,-0.12968 -4.29621,-0.25784 -0.0792,-0.12815 -0.0179,-0.23301 0.13619,-0.23301 0.15411,0 0.2802,-0.12697 0.2802,-0.28215 0,-0.35674 -1.33613,-0.20825 -1.34854,0.14986 -0.0215,0.6192 -1.2729,0.90765 -3.97696,0.91667 -2.9168,0.01 -4.59706,-0.39814 -4.90078,-1.18961 -0.22877,-0.59618 -1.57017,-0.46447 -2.73067,0.26812 -1.38763,0.87598 -1.53247,1.73668 -0.7958,4.7291 0.47448,1.92741 0.51834,2.45482 0.2567,3.08648 -0.21371,0.51596 -0.24537,1.21442 -0.0981,2.16408 0.26564,1.71276 0.20341,2.30052 -0.44873,4.23817 -0.28007,0.83215 -0.50922,1.98309 -0.50922,2.55764 0,0.57455 -0.10928,1.08432 -0.24284,1.13282 -0.13356,0.0485 -0.71706,1.63619 -1.29667,3.52818 -1.221525,3.98738 -1.823403,6.89102 -1.878322,9.06158 -0.02979,1.17727 -0.757408,1.13581 -1.592848,-0.0908 l -0.645049,-0.94705 -0.343122,1.14729 c -0.188717,0.63101 -0.344929,1.63842 -0.347138,2.2387 -0.0049,1.33409 -0.270391,2.74505 -0.516499,2.74505 -0.09996,0 -0.423237,-0.32742 -0.718384,-0.7276 z m 40.785122,-0.69194 c -0.62184,-0.94904 -0.76436,-2.02004 -0.2688,-2.02004 0.22112,0 0.40205,0.12756 0.40205,0.28348 0,0.15591 0.17859,0.46208 0.39687,0.68036 0.44685,0.44684 0.52698,1.30577 0.14392,1.54251 -0.13913,0.086 -0.44245,-0.13285 -0.67404,-0.48631 z m -16.01866,-6.0791 c -0.43977,-0.22951 -1.40715,-0.32541 -2.7853,-0.27612 -1.97269,0.0705 -4.30889,-0.28205 -4.61071,-0.69588 -0.34165,-0.46846 -1.54965,-0.87726 -2.44059,-0.82592 -1.6791,0.0968 -2.67422,-0.69076 -2.96335,-2.34511 -0.0127,-0.0728 -0.27763,-0.54901 -0.5887,-1.05833 -0.51464,-0.84262 -0.54109,-1.08097 -0.29363,-2.64583 0.31394,-1.98527 0.87988,-2.74045 2.86232,-3.81944 1.23514,-0.67224 1.49505,-0.70876 5.20627,-0.73152 2.56591,-0.0157 4.6325,0.11851 6.02289,0.39123 2.62214,0.51433 4.90025,1.20589 5.42396,1.64654 0.21828,0.18366 0.69407,0.42487 1.05731,0.53602 0.99842,0.3055 1.30738,0.90219 1.16076,2.24175 -0.39285,3.58918 -1.39485,5.02742 -4.68817,6.72936 -1.2858,0.66448 -2.41689,1.20741 -2.51354,1.20651 -0.0967,-7.9e-4 -0.47894,-0.15986 -0.84952,-0.35326 z m -3.55955,-2.55553 c 0.0899,-0.14552 0.008,-0.27262 -0.18282,-0.28244 -0.19049,-0.01 -0.76307,-0.0608 -1.27239,-0.11335 l -0.92604,-0.0955 0.79375,0.366 c 0.96088,0.44307 1.37109,0.47544 1.5875,0.12528 z"
       id="path21"
       inkscape:connector-curvature="0" />
  </g>
</svg>
